<svg xmlns="http://www.w3.org/2000/svg" xmlns:xlink="http://www.w3.org/1999/xlink" viewBox="0 0 381.06 141.17"><defs><style>.cls-1{fill:#fff;}.cls-2{fill:url(#linear-gradient);}.cls-3{fill:url(#linear-gradient-2);}.cls-4{fill:url(#linear-gradient-3);}</style><linearGradient id="linear-gradient" x1="0.36" y1="82.5" x2="135.57" y2="82.5" gradientUnits="userSpaceOnUse"><stop offset="0" stop-color="#08f760"/><stop offset="1" stop-color="#1085f9"/></linearGradient><linearGradient id="linear-gradient-2" x1="0.58" y1="74.84" x2="136.27" y2="74.84" xlink:href="#linear-gradient"/><linearGradient id="linear-gradient-3" x1="0" y1="66.87" x2="136.18" y2="66.87" xlink:href="#linear-gradient"/></defs><g id="Layer_2" data-name="Layer 2"><g id="FaceB"><path class="cls-1" d="M160.28,134l11.93-31.25A6,6,0,0,1,174.1,100a4.41,4.41,0,0,1,2.71-.86,4.72,4.72,0,0,1,2.79.83,5.59,5.59,0,0,1,1.86,2.74l12,31.3h-3.87l-3.42-9H167.42L164,134Zm8.22-12.13h16.62l-6.65-17.95a4,4,0,0,0-.66-1.22,1.18,1.18,0,0,0-.95-.44,1.1,1.1,0,0,0-1,.44,5.81,5.81,0,0,0-.66,1.22Z"/><path class="cls-1" d="M197.4,134V98.28h3.42V134Z"/><path class="cls-1" d="M221,134a16.65,16.65,0,0,1-7.17-1.49,11.53,11.53,0,0,1-6.82-11,14.59,14.59,0,0,1,1.47-6.58,11.82,11.82,0,0,1,4.13-4.72,11.07,11.07,0,0,1,6.23-1.76,11.3,11.3,0,0,1,6.21,1.62,10.32,10.32,0,0,1,3.87,4.35,14,14,0,0,1,1.32,6.16c0,.33,0,.68,0,1.08a6.53,6.53,0,0,1-.15,1H210.65a8.15,8.15,0,0,0,1.56,4.6,8.7,8.7,0,0,0,3.7,2.79,12.81,12.81,0,0,0,4.91.93h6.31v3Zm-10.37-13.74h16.14a13.68,13.68,0,0,0-.2-2.18,9.9,9.9,0,0,0-.71-2.37,7.51,7.51,0,0,0-1.42-2.15,6.83,6.83,0,0,0-2.3-1.59,8.35,8.35,0,0,0-3.39-.61,7.28,7.28,0,0,0-3.38.78,7.58,7.58,0,0,0-2.54,2.08,9.79,9.79,0,0,0-1.59,2.86A10,10,0,0,0,210.65,120.24Z"/><path class="cls-1" d="M228.79,141.17l.05-3H232a4.22,4.22,0,0,0,3.27-1.17,4.73,4.73,0,0,0,1.08-3.33V109h3.42v25a6.55,6.55,0,0,1-7.09,7.09ZM238,104.54a2.38,2.38,0,0,1-1.71-.73,2.35,2.35,0,0,1-.73-1.72,2.3,2.3,0,0,1,.73-1.73,2.4,2.4,0,0,1,1.71-.71,2.33,2.33,0,0,1,1.74.73,2.43,2.43,0,0,1,0,3.43A2.36,2.36,0,0,1,238,104.54Z"/><path class="cls-1" d="M258,134.61a11.17,11.17,0,0,1-10.56-6.48,15.05,15.05,0,0,1-1.42-6.62,14,14,0,0,1,1.57-6.68,11.61,11.61,0,0,1,4.47-4.67,13.43,13.43,0,0,1,6.92-1.71,12.62,12.62,0,0,1,6.68,1.71,11.87,11.87,0,0,1,4.35,4.6,13.65,13.65,0,0,1,1.54,6.5V134h-3.38V128.4H268a11,11,0,0,1-2.06,2.91,10.65,10.65,0,0,1-8,3.3Zm.74-2.93a8.77,8.77,0,0,0,4.84-1.35,9.41,9.41,0,0,0,3.32-3.66,10.7,10.7,0,0,0,1.18-5.26,11.32,11.32,0,0,0-1.13-5.13,8.62,8.62,0,0,0-8.07-4.89,9.11,9.11,0,0,0-5,1.34,8.79,8.79,0,0,0-3.23,3.67,11.92,11.92,0,0,0-1.13,5.26,11.67,11.67,0,0,0,1.08,5,8.59,8.59,0,0,0,3.15,3.64A9,9,0,0,0,258.72,131.68Z"/><path class="cls-1" d="M279.06,134V119.45a10.89,10.89,0,0,1,1.54-5.89,10.38,10.38,0,0,1,4.13-3.81,12.86,12.86,0,0,1,11.47,0,10.53,10.53,0,0,1,4.11,3.81,11,11,0,0,1,1.54,5.89V134h-3.43V119.6a8.27,8.27,0,0,0-1.12-4.42,7.7,7.7,0,0,0-3-2.82,8.27,8.27,0,0,0-3.94-1,8.11,8.11,0,0,0-3.86,1,7.4,7.4,0,0,0-2.93,2.79,8.38,8.38,0,0,0-1.13,4.47V134Z"/><path class="cls-1" d="M315.78,133.71a11.8,11.8,0,0,1-4-2.62,12,12,0,0,1-2.72-4.18,15.12,15.12,0,0,1-1-5.6,13.44,13.44,0,0,1,1.66-6.87,11.79,11.79,0,0,1,4.42-4.42,12.17,12.17,0,0,1,6.14-1.57,10.53,10.53,0,0,1,3.91.74,11.08,11.08,0,0,1,3.33,2,10,10,0,0,1,2.3,3h.09V98.28h3.43v23.28a13.77,13.77,0,0,1-1.72,7.09A11.41,11.41,0,0,1,327,133.1a14,14,0,0,1-11.25.61Zm9.51-3.25a8.66,8.66,0,0,0,3.33-3.43,11.11,11.11,0,0,0,1.24-5.47,11,11,0,0,0-1.27-5.48,8.88,8.88,0,0,0-3.37-3.45,9,9,0,0,0-4.55-1.2,8.7,8.7,0,0,0-4.52,1.23,9.08,9.08,0,0,0-3.35,3.49,10.79,10.79,0,0,0-1.27,5.36A11,11,0,0,0,312.8,127a8.87,8.87,0,0,0,3.37,3.47,9.37,9.37,0,0,0,9.12,0Z"/><path class="cls-1" d="M340.67,134V116.13a6.51,6.51,0,0,1,7.09-7.09h4.31v3h-3.62a4.24,4.24,0,0,0-3.26,1.18,4.68,4.68,0,0,0-1.1,3.32V134Z"/><path class="cls-1" d="M368.1,134.61a12.92,12.92,0,0,1-6.69-1.73,12.41,12.41,0,0,1-4.6-4.72,14.15,14.15,0,0,1,0-13.3,12.41,12.41,0,0,1,4.6-4.72,13,13,0,0,1,18,4.72,14,14,0,0,1,0,13.3,12.71,12.71,0,0,1-4.6,4.72A12.86,12.86,0,0,1,368.1,134.61Zm0-3a9.16,9.16,0,0,0,4.94-1.34,9.28,9.28,0,0,0,3.35-3.65,11.59,11.59,0,0,0,0-10.27,9.26,9.26,0,0,0-3.35-3.64,9.81,9.81,0,0,0-9.9,0,9.26,9.26,0,0,0-3.32,3.64,11.59,11.59,0,0,0,0,10.27,9.28,9.28,0,0,0,3.32,3.65A9.14,9.14,0,0,0,368.1,131.63Z"/><path class="cls-2" d="M53,122.74a3,3,0,0,1-1.19-.23.55.55,0,0,1-.27-.69.48.48,0,0,1,.64-.3C55.41,123,64.37,115,73,107.3l1.81-1.6c-7.1-2.49-14.77-5.47-22.22-8.54-8.52,4.85-19,7.08-32.33,6.92-8.92-.15-15-2.44-17.95-6.82A12,12,0,0,1,.61,88.2a10.2,10.2,0,0,1,4.33-7.13C9,78.48,15.15,79.12,23.22,83c7.46,3.58,18.14,8.38,29.33,13a42.68,42.68,0,0,0,6.53-4.67c3.62-3.13,8.11-7.52,13.3-12.6,3.83-3.75,8-7.8,12.21-11.78-4.54-2-9.19-4.2-13.89-6.42l-.51-.24C59,55,49.11,54.58,40.83,59.05a24.36,24.36,0,0,0-10.3,10.29.14.14,0,0,1,0,.09.5.5,0,0,1-.54.47.53.53,0,0,1-.42-.38c-.23-.76,1.91-4.12,4.64-6.82,5.25-5.2,16.95-12.56,36.37-3.4l.51.24c4.85,2.29,9.66,4.56,14.33,6.61C100.94,51.7,117.89,38.37,127.6,43.3c5.68,2.88,7.4,8.13,7.83,12,.72,6.39-1.51,13.24-4,15.39-10.81,9.51-27.4,4.73-45.85-3.34C81.23,71.48,77,75.65,73,79.51c-5.2,5.1-9.7,9.5-13.34,12.65a45.43,45.43,0,0,1-5.93,4.33c7.4,3,15,6,22,8.41,5.46-4.83,10.87-9.42,14.9-11.52,3.55-1.85,11.54-4.57,16.35-1.68,2.25,1.35,3.58,3.75,4,7.13.4,3.69-.5,6.66-2.66,8.82-4.3,4.29-12.45,4.14-15.72,3.39a166.2,166.2,0,0,1-16.62-5l-2.3,2C65.22,115.62,57.21,122.74,53,122.74Zm23.91-17.46A161.05,161.05,0,0,0,92.77,110c3.11.71,10.84.87,14.85-3.13,1.93-1.92,2.72-4.58,2.36-7.91-.33-3-1.49-5.15-3.45-6.33-4.63-2.78-12.73.29-15.46,1.71C87.26,96.32,82.11,100.66,76.86,105.28Zm-66-24.71A9.82,9.82,0,0,0,5.45,82a9.22,9.22,0,0,0-3.87,6.37l0,.1a11,11,0,0,0,1.57,8.19c2.81,4.09,8.58,6.24,17.18,6.38,12.74.15,22.83-1.91,31.07-6.37C40.47,92.13,30.12,87.47,22.83,84,18.11,81.71,14.1,80.57,10.83,80.57Zm75.61-14c18,7.82,34.08,12.38,44.41,3.29,2-1.74,4.32-8.08,3.61-14.43-.4-3.63-2-8.52-7.27-11.2C118,39.62,101.62,52.49,86.44,66.6Z"/><path class="cls-3" d="M53.43,115.34a3.13,3.13,0,0,1-1.29-.25.81.81,0,0,1-.41-1,.72.72,0,0,1,1-.45c3.15,1.38,12.46-6.88,20.66-14.17l1.47-1.3c-7-2.45-14.43-5.36-21.71-8.36-8.54,4.83-19,7-32.35,6.9-9-.15-15.1-2.48-18.14-6.93A12.25,12.25,0,0,1,.84,80.49a10.4,10.4,0,0,1,4.44-7.31c4.14-2.64,10.36-2,18.5,1.91C31.22,78.66,41.85,83.44,53,88a42.35,42.35,0,0,0,6.39-4.59c3.62-3.12,8.1-7.51,13.29-12.59,3.74-3.67,7.77-7.61,11.92-11.51-4.43-2-9-4.1-13.53-6.25l-.51-.24C59.68,47.72,50,47.21,41.93,51.34A24.59,24.59,0,0,0,31.24,61.72v.08a.75.75,0,0,1-.81.7.77.77,0,0,1-.63-.56c-.28-.95,2.05-4.47,4.71-7.1C39.8,49.6,51.6,42.18,71.14,51.4l.51.24c4.8,2.26,9.56,4.51,14.19,6.55,15.54-14.47,32.52-27.77,42.33-22.8,5.78,2.94,7.52,8.28,8,12.25.72,6.47-1.56,13.42-4.06,15.62-10.89,9.57-27.49,4.83-46-3.24-4.34,4.06-8.56,8.2-12.47,12-5.2,5.1-9.7,9.5-13.35,12.66a44.57,44.57,0,0,1-5.51,4.08c7.2,2.94,14.56,5.79,21.37,8.16C81.6,92.14,87,87.57,91,85.48c3.59-1.87,11.67-4.62,16.57-1.67,2.33,1.39,3.7,3.86,4.07,7.33.41,3.78-.51,6.82-2.74,9-4.36,4.35-12.61,4.21-15.93,3.46a165.49,165.49,0,0,1-16.51-4.93l-2.2,2C65.47,108.49,57.76,115.34,53.43,115.34Zm24.4-17.82a159.85,159.85,0,0,0,15.45,4.56c3,.67,10.74.83,14.65-3.07,1.86-1.86,2.62-4.44,2.27-7.69-.32-2.92-1.44-5-3.32-6.12-4.55-2.73-12.54.31-15.24,1.72C87.93,88.84,82.94,93,77.83,97.52ZM11.27,73.2A9.64,9.64,0,0,0,6,74.55a8.86,8.86,0,0,0-3.73,6.16l0,.15a10.66,10.66,0,0,0,1.53,8c2.76,4,8.48,6.13,17,6.27,12.44.15,22.36-1.81,30.47-6.07-10.73-4.46-20.87-9-28-12.47C18.55,74.32,14.53,73.2,11.27,73.2Zm76.1-14.35C105.13,66.55,121,71,131.16,62c1.9-1.67,4.22-8,3.53-14.2-.4-3.56-2-8.37-7.14-11C118.58,32.28,102.4,44.9,87.37,58.85Z"/><path class="cls-1" d="M118.44,14.77a2.45,2.45,0,0,1-2.17-2.66V5.33H20.15v6.78A2.45,2.45,0,0,1,18,14.77a2.45,2.45,0,0,1-2.17-2.66V0H120.62V12.11A2.46,2.46,0,0,1,118.44,14.77Z"/><path class="cls-1" d="M25.11,137.35H15.82V19.85h9.29a2.37,2.37,0,0,1,2.1,2.57A2.37,2.37,0,0,1,25.11,25H20V132.2h5.09a2.63,2.63,0,0,1,0,5.15Z"/><path class="cls-1" d="M120.52,137.35h-9.28a2.63,2.63,0,0,1,0-5.15h5.08V25h-5.08a2.37,2.37,0,0,1-2.1-2.58,2.37,2.37,0,0,1,2.1-2.57h9.28Z"/><path class="cls-4" d="M53.11,107.64a3.37,3.37,0,0,1-1.4-.28,1.09,1.09,0,0,1-.54-1.38.94.94,0,0,1,1.26-.59c3,1.33,12.67-7.24,20.42-14.13l1.12-1c-6.8-2.4-14.09-5.24-21.19-8.16-8.56,4.81-19.08,7-32.37,6.88-9.08-.16-15.25-2.53-18.34-7A12.51,12.51,0,0,1,.26,72.47,10.68,10.68,0,0,1,4.82,65c4.2-2.69,10.5-2.05,18.72,1.9,7.41,3.55,18,8.31,29.1,12.9a42,42,0,0,0,6.27-4.51c3.61-3.12,8.08-7.51,13.27-12.58,3.65-3.58,7.58-7.43,11.62-11.23-4.31-1.92-8.72-4-13.17-6.09l-.51-.24C59.47,40.1,50,39.53,42,43.44a24.54,24.54,0,0,0-10.9,10.37v0a1,1,0,0,1-1.07.94,1,1,0,0,1-.84-.74c-.37-1.27,2.53-5.15,4.77-7.38,5.34-5.28,17.23-12.77,36.9-3.49l.51.24c4.76,2.24,9.46,4.46,14,6.49C101,35.43,118,22.16,127.93,27.18c5.89,3,7.66,8.42,8.11,12.45.74,6.56-1.6,13.62-4.15,15.87-10.95,9.63-27.58,4.92-46.07-3.15-4.29,4-8.47,8.12-12.34,11.91-5.21,5.11-9.71,9.51-13.36,12.67A45.78,45.78,0,0,1,55,80.75c7,2.86,14.13,5.61,20.75,7.92,5.42-4.78,10.77-9.31,14.8-11.4,3.62-1.89,11.8-4.67,16.79-1.67,2.4,1.44,3.81,4,4.2,7.53.42,3.87-.53,7-2.82,9.27C104.31,96.83,96,96.68,92.6,95.92A164.82,164.82,0,0,1,76.18,91l-2.1,1.86C64,101.89,57.17,107.64,53.11,107.64ZM78,89.44c5.57,1.89,10.71,3.43,15,4.41,2.92.66,10.59.82,14.43-3,1.8-1.8,2.54-4.31,2.2-7.46-.31-2.88-1.36-4.82-3.2-5.92-4.45-2.68-12.35.33-15,1.72C87.81,81.05,83,85.07,78,89.44Zm-67.07-24a9.37,9.37,0,0,0-5.12,1.32,8.55,8.55,0,0,0-3.62,6l0,.19a10.23,10.23,0,0,0,1.5,7.75c2.67,3.89,8.48,6,16.78,6.15,12.14.13,21.86-1.72,29.84-5.78-10.53-4.39-20.46-8.86-27.52-12.25C18.14,66.6,14.15,65.49,10.93,65.49ZM87.5,50.8c17.53,7.56,33.17,11.83,43.17,3.05,1.86-1.64,4.12-7.88,3.44-14-.39-3.5-1.93-8.21-7-10.79C118.31,24.64,102.39,37,87.5,50.8Z"/></g></g></svg>